<svg xmlns="http://www.w3.org/2000/svg" width="361" height="91" viewBox="0 0 361 91" fill="none"><g id="logo/ParentWorks_n"><g id="Group"><g id="Group 3"><mask id="mask0" mask-type="alpha" maskUnits="userSpaceOnUse" x="0" y="38" width="34" height="48"><path id="Clip 2" fill-rule="evenodd" clip-rule="evenodd" d="M0.0128784 38.2207H33.3508V85.6915H0.0128784V38.2207Z" fill="white"></path></mask><g mask="url(#mask0)"><path id="Fill 1" fill-rule="evenodd" clip-rule="evenodd" d="M31.3095 38.2207C32.6704 38.2207 33.3508 38.8985 33.3508 40.2549V47.8505C33.3508 49.1386 32.6704 49.8848 31.3095 49.8848H14.1647C12.872 49.8848 12.1238 50.563 12.1238 51.9194V54.0896C12.1238 55.3781 12.872 56.1239 14.1647 56.1239H25.3906C26.751 56.1239 27.4319 56.8021 27.4319 58.1586V65.7537C27.4319 67.0422 26.751 67.7884 25.3906 67.7884H14.1647C12.872 67.7884 12.1238 68.4661 12.1238 69.8226V83.6568C12.1238 84.9453 11.4434 85.6915 10.0825 85.6915H2.05417C0.761492 85.6915 0.0128784 84.9453 0.0128784 83.6568V40.2549C0.0128784 38.8985 0.761492 38.2207 2.05417 38.2207H31.3095Z" fill="#EA6B61"></path></g></g><path id="Fill 4" fill-rule="evenodd" clip-rule="evenodd" d="M57.7751 54.6318C57.7751 51.377 57.2987 49.7491 52.8084 49.7491C48.3181 49.7491 47.8418 51.377 47.8418 54.6318V62.0239C47.8418 63.312 48.5904 64.0581 49.8826 64.0581H55.7338C57.0946 63.9902 57.7751 63.312 57.7751 61.9559V54.6318ZM69.4774 83.3857C69.4774 84.8777 68.7969 85.6913 67.4365 85.6913H59.8163C58.5237 85.6913 57.7751 85.0131 57.7751 83.6567V77.7569C57.7751 76.4004 57.0946 75.7227 55.7338 75.7227H49.8826C48.5904 75.7227 47.8418 76.4004 47.8418 77.7569V83.6567C47.8418 85.0131 47.1613 85.6913 45.8005 85.6913H38.1812C36.888 85.6913 36.1399 84.8777 36.1399 83.3857V54.6318C36.1399 46.087 37.5003 37 52.8084 37C68.1165 37 69.4774 46.087 69.4774 54.6318V83.3857Z" fill="#EA6B61"></path><g id="Group 8"><mask id="mask1" mask-type="alpha" maskUnits="userSpaceOnUse" x="75" y="38" width="49" height="48"><path id="Clip 7" fill-rule="evenodd" clip-rule="evenodd" d="M75.9402 38.2207H123.021V85.6915H75.9402V38.2207Z" fill="white"></path></mask><g mask="url(#mask1)"><path id="Fill 6" fill-rule="evenodd" clip-rule="evenodd" d="M92.0646 38.2207C93.2891 38.2207 93.9696 38.8985 94.2423 40.0515L99.0726 59.7859C99.2089 60.4642 99.7525 60.4642 99.8889 59.7859L104.72 40.0515C104.992 38.8985 105.672 38.2207 106.896 38.2207H120.98C122.341 38.2207 123.021 38.8985 123.021 40.2549V83.6568C123.021 84.9453 122.341 85.6915 120.98 85.6915H113.36C112.068 85.6915 111.319 84.9453 111.319 83.6568V56.9375C111.319 56.4632 110.707 56.3952 110.57 56.8696L103.971 83.9282C103.699 85.0812 102.951 85.6915 101.726 85.6915H97.2358C96.0104 85.6915 95.2622 85.0812 94.9904 83.9282L88.3907 56.8696C88.2548 56.3952 87.6425 56.4632 87.6425 56.9375V83.6568C87.6425 84.9453 86.9625 85.6915 85.6017 85.6915H77.9815C76.6211 85.6915 75.9402 84.9453 75.9402 83.6568V40.2549C75.9402 38.8985 76.6211 38.2207 77.9815 38.2207H92.0646Z" fill="#EA6B61"></path></g></g><g id="Group 11"><mask id="mask2" mask-type="alpha" maskUnits="userSpaceOnUse" x="129" y="38" width="13" height="48"><path id="Clip 10" fill-rule="evenodd" clip-rule="evenodd" d="M129.825 38.2207H141.391V85.6915H129.825V38.2207Z" fill="white"></path></mask><g mask="url(#mask2)"><path id="Fill 9" fill-rule="evenodd" clip-rule="evenodd" d="M139.35 38.2207C140.711 38.2207 141.391 38.8985 141.391 40.2549V83.6568C141.391 84.9453 140.711 85.6915 139.35 85.6915H131.866C130.573 85.6915 129.825 84.9453 129.825 83.6568V40.2549C129.825 38.8985 130.573 38.2207 131.866 38.2207H139.35Z" fill="#EA6B61"></path></g></g><g id="Group 14"><mask id="mask3" mask-type="alpha" maskUnits="userSpaceOnUse" x="148" y="38" width="32" height="48"><path id="Clip 13" fill-rule="evenodd" clip-rule="evenodd" d="M148.194 38.2207H179.151V85.6915H148.194V38.2207Z" fill="white"></path></mask><g mask="url(#mask3)"><path id="Fill 12" fill-rule="evenodd" clip-rule="evenodd" d="M157.855 38.2207C159.216 38.2207 159.897 38.8985 159.897 40.2549V71.9928C159.897 73.2813 160.645 74.0275 161.937 74.0275H177.11C178.47 74.0275 179.151 74.7057 179.151 76.0617V83.6568C179.151 85.0133 178.47 85.6915 177.11 85.6915H150.235C148.942 85.6915 148.194 84.9453 148.194 83.6568V40.2549C148.194 38.8985 148.942 38.2207 150.235 38.2207H157.855Z" fill="#EA6B61"></path></g></g><g id="Group 17"><mask id="mask4" mask-type="alpha" maskUnits="userSpaceOnUse" x="173" y="38" width="40" height="48"><path id="Clip 16" fill-rule="evenodd" clip-rule="evenodd" d="M173.581 38.2207H212.411V85.6915H173.581V38.2207Z" fill="white"></path></mask><g mask="url(#mask4)"><path id="Fill 15" fill-rule="evenodd" clip-rule="evenodd" d="M185.206 38.2207C186.363 38.2207 187.111 38.6951 187.519 39.7801L192.554 52.3943C192.826 53.0045 193.235 53.0045 193.507 52.3943L198.541 39.7801C198.949 38.6951 199.698 38.2207 200.855 38.2207H210.583C212.148 38.2207 212.828 39.1699 212.148 40.5938L199.97 67.7204C199.834 67.9918 199.834 68.2627 199.834 68.5341V83.6568C199.834 84.9453 199.153 85.6915 197.793 85.6915H188.268C186.975 85.6915 186.227 84.9453 186.227 83.6568V68.5341C186.227 68.2627 186.227 67.9918 186.091 67.7204L173.844 40.5938C173.164 39.1699 173.844 38.2207 175.409 38.2207H185.206Z" fill="#EA6B61"></path></g></g><g id="Group 20"><mask id="mask5" mask-type="alpha" maskUnits="userSpaceOnUse" x="228" y="38" width="48" height="48"><path id="Clip 19" fill-rule="evenodd" clip-rule="evenodd" d="M228.409 38.2207H275.489V85.6915H228.409V38.2207Z" fill="white"></path></mask><g mask="url(#mask5)"><path id="Fill 18" fill-rule="evenodd" clip-rule="evenodd" d="M244.533 38.2207C245.758 38.2207 246.438 38.8985 246.711 40.0515L251.541 59.7859C251.677 60.4642 252.221 60.4642 252.357 59.7859L257.188 40.0515C257.46 38.8985 258.14 38.2207 259.365 38.2207H273.449C274.809 38.2207 275.489 38.8985 275.489 40.2549V83.6568C275.489 84.9453 274.809 85.6915 273.449 85.6915H265.829C264.536 85.6915 263.787 84.9453 263.787 83.6568V56.9375C263.787 56.4632 263.175 56.3952 263.039 56.8696L256.44 83.9282C256.167 85.0812 255.419 85.6915 254.195 85.6915H249.704C248.479 85.6915 247.731 85.0812 247.459 83.9282L240.859 56.8696C240.723 56.3952 240.111 56.4632 240.111 56.9375V83.6568C240.111 84.9453 239.431 85.6915 238.07 85.6915H230.45C229.089 85.6915 228.409 84.9453 228.409 83.6568V40.2549C228.409 38.8985 229.089 38.2207 230.45 38.2207H244.533Z" fill="#EA6B61"></path></g></g><path id="Fill 21" fill-rule="evenodd" clip-rule="evenodd" d="M303.588 54.6318C303.588 51.377 303.112 49.7491 298.622 49.7491C294.131 49.7491 293.655 51.377 293.655 54.6318V62.0239C293.655 63.312 294.403 64.0581 295.696 64.0581H301.547C302.907 63.9902 303.588 63.312 303.588 61.9559V54.6318ZM315.29 83.3857C315.29 84.8777 314.61 85.6913 313.249 85.6913H305.629C304.337 85.6913 303.588 85.0131 303.588 83.6567V77.7569C303.588 76.4004 302.907 75.7227 301.547 75.7227H295.696C294.403 75.7227 293.655 76.4004 293.655 77.7569V83.6567C293.655 85.0131 292.975 85.6913 291.614 85.6913H283.994C282.701 85.6913 281.953 84.8777 281.953 83.3857V54.6318C281.953 46.087 283.313 37 298.622 37C313.929 37 315.29 46.087 315.29 54.6318V83.3857Z" fill="#EA6B61"></path><g id="Group 25"><mask id="mask6" mask-type="alpha" maskUnits="userSpaceOnUse" x="321" y="38" width="37" height="48"><path id="Clip 24" fill-rule="evenodd" clip-rule="evenodd" d="M321.753 38.2207H357.948V85.6915H321.753V38.2207Z" fill="white"></path></mask><g mask="url(#mask6)"><path id="Fill 23" fill-rule="evenodd" clip-rule="evenodd" d="M333.796 38.2207C334.952 38.2207 335.701 38.6951 336.177 39.7801L345.43 62.363C345.702 62.9732 346.246 62.8378 346.246 62.1595V40.2549C346.246 38.8985 346.994 38.2207 348.287 38.2207H355.907C357.268 38.2207 357.949 38.8985 357.949 40.2549V83.6568C357.949 84.9453 357.268 85.6915 355.907 85.6915H345.906C344.749 85.6915 344.001 85.2167 343.524 84.1316L334.272 61.5488C333.999 60.9385 333.456 61.0744 333.456 61.7527V83.6568C333.456 84.9453 332.775 85.6915 331.414 85.6915H323.794C322.502 85.6915 321.753 84.9453 321.753 83.6568V40.2549C321.753 38.8985 322.502 38.2207 323.794 38.2207H333.796Z" fill="#E86B60"></path></g></g></g><g id="Group 28"><mask id="mask7" mask-type="alpha" maskUnits="userSpaceOnUse" x="0" y="6" width="211" height="22"><path id="Clip 27" fill-rule="evenodd" clip-rule="evenodd" d="M0 6.35461H210.779V27.891H0V6.35461Z" fill="white"></path></mask><g mask="url(#mask7)"><path id="Fill 26" fill-rule="evenodd" clip-rule="evenodd" d="M207.944 9.00566H206.581V10.2767H207.944C208.088 10.2767 208.195 10.2042 208.303 10.0948C208.375 9.94966 208.447 9.80451 208.447 9.62306C208.447 9.4779 208.411 9.33226 208.303 9.18711C208.232 9.07824 208.088 9.00566 207.944 9.00566ZM206.007 8.46084H207.944C208.303 8.46084 208.554 8.56971 208.77 8.82421C208.949 9.07824 209.057 9.33226 209.057 9.62306C209.057 9.91337 208.985 10.1679 208.806 10.4219C208.626 10.6396 208.447 10.7853 208.159 10.8216H208.088L209.057 12.4556H208.303L207.406 10.8216H206.581V12.4556H205.971V8.46084H207.908H206.007ZM207.406 7.51635C206.581 7.51635 205.9 7.80715 205.361 8.35197C204.823 8.89631 204.536 9.58677 204.536 10.4219C204.536 11.2575 204.823 11.9475 205.361 12.4923C205.9 13.0371 206.581 13.3275 207.406 13.3275C208.232 13.3275 208.913 13.0371 209.451 12.4923C209.989 11.9475 210.24 11.2575 210.24 10.4219C210.24 9.58677 209.989 8.89631 209.451 8.35197C208.913 7.80715 208.232 7.51635 207.406 7.51635ZM207.406 7.0083C208.374 7.0083 209.164 7.33491 209.81 7.9886C210.456 8.64228 210.779 9.4779 210.779 10.4219C210.779 11.3664 210.456 12.2015 209.81 12.8552C209.164 13.5089 208.339 13.836 207.406 13.836C206.474 13.836 205.648 13.5089 205.002 12.8552C204.357 12.2015 204.034 11.3664 204.034 10.4219C204.034 9.4779 204.357 8.64228 205.002 7.9886C205.648 7.33491 206.438 7.0083 207.406 7.0083ZM163.386 10.6764H162.202V15.1071H163.386C163.924 15.1071 164.176 14.8526 164.211 14.3808V14.3078V11.4753C164.211 10.9667 163.924 10.6764 163.386 10.6764ZM196.357 10.6764H195.136V15.543H196.357C196.859 15.543 197.11 15.2885 197.146 14.7805V14.7074V11.5115C197.146 10.9667 196.894 10.6764 196.357 10.6764ZM163.386 18.9566H162.202V23.5329H163.386C163.924 23.5329 164.176 23.2789 164.211 22.7704V22.6973V19.756C164.211 19.4652 164.14 19.2474 163.996 19.1386C163.853 19.0292 163.637 18.9566 163.386 18.9566ZM90.6292 10.3856C90.3419 10.3856 90.1268 10.4582 89.9117 10.6034C89.732 10.749 89.6245 10.9304 89.6245 11.1845V11.2575V22.9155C89.6245 23.2063 89.732 23.4241 89.9117 23.5692C90.091 23.7144 90.3419 23.787 90.6292 23.787C90.8801 23.787 91.1315 23.7144 91.3107 23.5692C91.49 23.4241 91.5975 23.2422 91.5975 22.9881V22.9155V11.2938C91.5975 11.003 91.49 10.7853 91.3107 10.6396C91.1315 10.4582 90.8801 10.3856 90.6292 10.3856ZM31.7204 10.1679C32.7246 9.94966 33.801 9.94966 34.9132 10.2767C37.8188 11.1482 40.4022 13.3637 42.9851 15.3611C43.5591 15.7608 44.1332 16.1967 44.6713 16.5596C44.7077 16.5596 44.7077 16.5964 44.7435 16.5964C45.5685 17.2133 46.3222 17.7581 46.86 18.1578C47.0033 18.2304 47.2547 18.3397 47.5057 18.3397C47.7566 18.3397 47.9358 18.2667 48.1519 18.0852C48.3311 17.9401 48.5104 17.7581 48.6896 17.6493C49.1561 17.2501 49.5146 16.923 49.766 16.7415C50.0528 16.487 50.2325 15.0708 50.2678 14.8163C50.2678 14.6348 50.6268 10.8216 50.6631 10.4219V10.3493V10.313C50.699 10.2042 50.7702 10.1316 50.8782 10.1316C50.9499 10.1316 51.0221 10.1679 51.0574 10.2042C51.0574 10.2042 51.0933 10.2767 51.0933 10.313C51.2372 10.6764 51.4522 11.8019 51.7032 13.1823C53.0668 20.6274 52.6357 18.0489 53.0668 20.6274V20.7363C53.1022 20.9182 52.9588 21.0271 52.8512 21.0996C50.4117 22.153 47.7929 23.2063 45.3171 24.2592C45.1737 24.3318 45.0303 24.3318 44.8506 24.3318C44.7077 24.3318 44.5638 24.3318 44.4204 24.2955C43.703 24.1503 42.9851 23.9689 42.2677 23.8237C40.546 23.5329 39.0032 22.9518 37.2452 22.9155H37.0296H36.3481C35.0924 22.9155 33.8368 22.8793 32.5454 22.8067C32.5454 22.8067 32.1506 22.7704 31.9713 22.6973C30.1775 21.9348 28.4196 21.1722 26.6262 20.4097C26.5541 20.3734 26.5182 20.3734 26.4465 20.3734C26.3744 20.3734 26.3031 20.3734 26.2673 20.4097C24.4735 21.1722 22.7155 21.9348 20.9212 22.6973C20.742 22.7704 20.3477 22.8067 20.3477 22.8067C18.9124 22.843 17.4417 22.9518 16.0063 22.9155C14.105 22.8793 12.3112 23.4967 10.4815 23.8237C9.76362 23.9689 9.04619 24.1503 8.32877 24.2955C8.07784 24.3318 7.82643 24.3681 7.57549 24.2592C7.39626 24.1866 7.21654 24.1141 7.0373 24.0415C4.77748 23.0607 2.48134 22.0799 0.220562 21.0996C0.113498 21.0633 -0.0303698 20.9182 0.0054776 20.7363V20.6274C0.436124 18.0489 0.00547767 20.6274 1.36911 13.1823C1.62004 11.8019 1.87145 10.6764 1.97852 10.313C1.97852 10.2767 2.01437 10.2042 2.01437 10.2042C2.05069 10.1679 2.12239 10.1316 2.19408 10.1316C2.30162 10.1316 2.40917 10.2042 2.40917 10.3493V10.4219C2.44549 10.7853 2.76764 14.5985 2.80397 14.8163C2.80397 15.0708 3.01905 16.4508 3.30583 16.7415C3.52187 16.9593 3.91619 17.2864 4.38221 17.6493C4.56192 17.7949 4.74116 17.9401 4.9204 18.0852C5.09963 18.2304 5.31567 18.3397 5.56661 18.3397C5.81754 18.3397 6.06895 18.2304 6.21234 18.1578C6.75053 17.7581 7.46795 17.2133 8.32877 16.5964L8.40094 16.5596C8.93913 16.1604 9.51269 15.7608 10.0867 15.3611C12.6696 13.3637 15.2531 11.1482 18.1591 10.2767C19.2713 9.94966 20.3477 9.94966 21.3519 10.1679C21.6391 10.2405 21.8901 10.2767 21.9976 10.313C22.5717 10.4582 23.074 10.6764 23.5046 10.9304C24.7961 11.5841 25.5499 12.6738 26.5182 13.2186H26.6616C27.6304 12.6738 28.3837 11.5841 29.6752 10.9304C30.1058 10.6764 30.6082 10.4582 31.1822 10.313C31.1822 10.2767 31.3973 10.2042 31.7204 10.1679ZM105.876 6.7538L107.132 18.303L108.567 6.7538H113.267L109.285 27.4551H104.764L100.782 6.7538H105.876ZM69.0672 6.7538L71.0765 16.1967L73.0496 6.7538H79.7946V27.4551H75.0948V14.2719L72.1166 27.4551H69.1394L66.6276 14.2357V27.4188H62.3943V6.71751H69.0672V6.7538ZM140.497 6.7538L142.506 16.1967L144.479 6.7538H151.224V27.4551H146.524V14.2719L143.547 27.4551H140.569L138.057 14.2719V27.4551H133.824V6.7538H140.497ZM157.502 6.7538H164.032C164.606 6.7538 165.144 6.82637 165.718 6.97153C166.256 7.11717 166.759 7.33491 167.189 7.66199C167.619 7.9886 167.978 8.35197 168.229 8.82421C168.481 9.25968 168.588 9.76822 168.624 10.3856V10.5308V14.526C168.624 14.9982 168.481 15.47 168.158 15.8696C167.87 16.3056 167.404 16.6327 166.794 16.923C167.404 17.2133 167.87 17.5404 168.158 17.9401C168.444 18.3397 168.588 18.7389 168.624 19.2111V19.32V23.6781C168.624 24.3318 168.481 24.9129 168.229 25.3851C167.978 25.8574 167.619 26.2566 167.189 26.5474C166.759 26.8377 166.256 27.0922 165.718 27.2373C165.216 27.3825 164.713 27.4551 164.247 27.4551H164.068H157.538V6.7538H164.068H157.502ZM184.589 6.7538V10.4219H179.961V14.8893H183.046V18.8115H179.961V23.5329H184.589V27.4551H175.154V6.7538H184.589ZM127.797 6.7538V10.4219H123.169V14.8893H126.254V18.8115H123.169V23.5329H127.797V27.4551H118.361V6.7538H127.797ZM190.436 6.7538H197.002C197.576 6.7538 198.115 6.82637 198.689 6.97153C199.226 7.11717 199.729 7.33491 200.159 7.66199C200.589 7.9886 200.948 8.35197 201.2 8.82421C201.451 9.25968 201.559 9.76822 201.594 10.3856V10.5308V15.0345C201.594 15.543 201.451 16.0516 201.128 16.5596C200.804 17.1044 200.374 17.5041 199.764 17.7581C200.159 19.3926 202.168 27.0922 202.276 27.4188H197.827L196.284 19.2111H195.136V27.4551H190.436V6.7538H197.002H190.436ZM90.6292 6.35461C91.4541 6.35461 92.2437 6.49977 92.9612 6.79008C93.6786 7.0804 94.2885 7.44377 94.8266 7.87973C95.3648 8.31568 95.7592 8.82421 96.0464 9.36855C96.3332 9.87708 96.4766 10.3493 96.4766 10.8579V10.9667V23.2789C96.4766 23.787 96.3332 24.3318 96.0464 24.8766C95.7592 25.4214 95.329 25.93 94.8266 26.3659C94.3243 26.8014 93.6786 27.1648 92.9612 27.4551C92.2437 27.7459 91.49 27.891 90.6292 27.891C89.7679 27.891 89.0146 27.7459 88.2972 27.4551C87.5797 27.1648 86.9694 26.8014 86.4317 26.3659C85.8935 25.93 85.4987 25.4214 85.2119 24.8766C84.9246 24.3681 84.7808 23.8958 84.7808 23.3878V23.2789V10.9304C84.7808 10.4219 84.9246 9.87708 85.2119 9.33226C85.4987 8.78744 85.9293 8.31568 86.4317 7.84344C86.9335 7.3712 87.5797 7.04459 88.2972 6.7538C89.0146 6.49977 89.7679 6.35461 90.6292 6.35461Z" fill="white"></path></g></g></g></svg>